<svg width="43" height="39" viewBox="0 0 43 39" fill="none" xmlns="http://www.w3.org/2000/svg">
<path d="M27.0983 16.7295C27.0983 18.1579 28.2612 19.32 29.6896 19.32C31.1195 19.32 32.2824 18.1579 32.2824 16.7295C32.2824 15.301 31.1195 14.1382 29.6896 14.1382C28.2612 14.1382 27.0983 15.3011 27.0983 16.7295Z" fill="#231F20"/>
<path d="M42.8869 3.76943C42.8869 1.69096 41.196 0 39.1159 0H3.77089C1.69242 0 0 1.6909 0 3.76943V29.6903C0 31.7688 1.69237 33.4596 3.77089 33.4596H16.6173L21.4426 38.2821L26.2665 33.4596H39.1159C41.196 33.4596 42.8869 31.7688 42.8869 29.6903V25.4676L42.8823 25.4021L42.8869 3.76943ZM40.0591 28.5122C40.0591 29.6827 39.1099 30.6319 37.9394 30.6319H24.8931L21.4426 34.0838L17.9938 30.6319H4.94903C3.77853 30.6319 2.82775 29.6827 2.82775 28.5122V4.94757C2.82775 3.77707 3.77853 2.82555 4.94903 2.82555H37.9394C39.1099 2.82555 40.0591 3.77707 40.0591 4.94757V25.2312V27.0808V28.5122Z" fill="#231F20"/>
<path d="M18.8517 16.7295C18.8517 18.1579 20.0145 19.32 21.4429 19.32C22.8714 19.32 24.0342 18.1579 24.0342 16.7295C24.0342 15.301 22.8714 14.1382 21.4429 14.1382C20.0145 14.1382 18.8517 15.3011 18.8517 16.7295Z" fill="#231F20"/>
<path d="M10.6049 16.7295C10.6049 18.1579 11.7677 19.32 13.1961 19.32C14.6245 19.32 15.7874 18.1579 15.7874 16.7295C15.7874 15.301 14.6245 14.1382 13.1961 14.1382C11.7677 14.1382 10.6049 15.3011 10.6049 16.7295Z" fill="#231F20"/>
</svg>
