<svg width="48" height="48" viewBox="0 0 48 48" fill="none" xmlns="http://www.w3.org/2000/svg">
<g filter="url(#filter0_d_34_739)">
<path d="M38.7983 12.0539H27.1811C27.7328 10.0248 28.0121 8.22173 28.0121 6.63429C28.0121 3.03249 24.8622 -0.416734 21.847 0.0410109C19.1883 0.444472 17.9193 2.78748 17.9193 5.79656V8.51515C17.9193 12.0025 15.366 14.9764 12.1191 15.3036L6.95484 15.2948C5.32293 15.2948 4 16.6774 4 18.3831V36.216C4 37.9223 5.32231 39.3043 6.95484 39.3043H35.5642C37.7291 39.3043 39.5882 37.6954 39.9915 35.4722L43.2257 17.6392C43.4752 16.2613 43.1242 14.8388 42.2682 13.7588C41.4122 12.6789 40.1402 12.0539 38.7983 12.0539ZM6.80745 36.216V18.3831C6.80745 18.298 6.87343 18.229 6.95484 18.229H10.3168V36.3701H6.95484C6.87344 36.3701 6.80745 36.3011 6.80745 36.216ZM40.4674 17.0935L37.2332 34.9264C37.0808 35.7642 36.38 36.3701 35.5642 36.3701H13.1242V18.0999C17.5287 17.2211 20.7175 13.2002 20.7268 8.51369V5.79656C20.7268 4.07415 21.256 3.09558 22.2498 2.94593C23.436 2.76547 25.2047 4.70355 25.2047 6.63576C25.2047 8.34643 24.7878 10.487 23.9385 13.0413C23.7895 13.4899 23.8574 13.9862 24.1209 14.3731C24.3843 14.76 24.8107 14.9898 25.265 14.9896H38.7983C39.3039 14.9896 39.7831 15.225 40.1057 15.6317C40.4284 16.0385 40.561 16.5743 40.4674 17.0935Z" fill="black"/>
</g>
<defs>
<filter id="filter0_d_34_739" x="0" y="0" width="47.3043" height="47.3044" filterUnits="userSpaceOnUse" color-interpolation-filters="sRGB">
<feFlood flood-opacity="0" result="BackgroundImageFix"/>
<feColorMatrix in="SourceAlpha" type="matrix" values="0 0 0 0 0 0 0 0 0 0 0 0 0 0 0 0 0 0 127 0" result="hardAlpha"/>
<feOffset dy="4"/>
<feGaussianBlur stdDeviation="2"/>
<feComposite in2="hardAlpha" operator="out"/>
<feColorMatrix type="matrix" values="0 0 0 0 0 0 0 0 0 0 0 0 0 0 0 0 0 0 0.25 0"/>
<feBlend mode="normal" in2="BackgroundImageFix" result="effect1_dropShadow_34_739"/>
<feBlend mode="normal" in="SourceGraphic" in2="effect1_dropShadow_34_739" result="shape"/>
</filter>
</defs>
</svg>
