<svg width="54" height="50" viewBox="0 0 54 50" fill="none" xmlns="http://www.w3.org/2000/svg">
<path fill-rule="evenodd" clip-rule="evenodd" d="M0.989462 0.920625C1.52807 0.576007 2.20517 0.529626 2.78573 0.79758L18.2782 7.94796L35.0114 0.776607C35.4995 0.5674 36.0535 0.575022 36.5357 0.79758L52.7857 8.29758C53.4498 8.60406 53.875 9.26866 53.875 10V47.5C53.875 48.1394 53.5491 48.7348 53.0105 49.0794C52.4719 49.424 51.7948 49.4704 51.2143 49.2024L35.7218 42.052L18.9886 49.2234C18.5004 49.4326 17.9465 49.425 17.4643 49.2024L1.21427 41.7024C0.550234 41.396 0.125 40.7314 0.125 40V2.5C0.125 1.86058 0.450855 1.26524 0.989462 0.920625ZM35.7218 4.55204L18.9886 11.7234C18.5004 11.9326 17.9465 11.925 17.4643 11.7024L3.875 5.43046V38.8003L18.2782 45.448L35.0114 38.2766C35.4995 38.0674 36.0535 38.075 36.5357 38.2976L50.125 44.5695V11.1997L35.7218 4.55204Z" fill="#666666"/>
<path fill-rule="evenodd" clip-rule="evenodd" d="M35.75 0.625C36.7855 0.625 37.625 1.46447 37.625 2.5V40C37.625 41.0355 36.7855 41.875 35.75 41.875C34.7145 41.875 33.875 41.0355 33.875 40V2.5C33.875 1.46447 34.7145 0.625 35.75 0.625Z" fill="#666666"/>
<path fill-rule="evenodd" clip-rule="evenodd" d="M18.25 8.125C19.2855 8.125 20.125 8.96447 20.125 10V47.5C20.125 48.5355 19.2855 49.375 18.25 49.375C17.2145 49.375 16.375 48.5355 16.375 47.5V10C16.375 8.96447 17.2145 8.125 18.25 8.125Z" fill="#666666"/>
<path fill-rule="evenodd" clip-rule="evenodd" d="M35.0114 0.776607C35.4995 0.5674 36.0535 0.575022 36.5357 0.79758L44.6612 4.54758C45.6014 4.98153 46.0118 6.09551 45.5779 7.03573C45.1439 7.97596 44.0299 8.38637 43.0897 7.95242L35.7218 4.55204L18.9886 11.7234C18.5004 11.9326 17.9465 11.925 17.4643 11.7024L9.33972 7.95242C8.3995 7.51848 7.98908 6.40449 8.42303 5.46427C8.85698 4.52404 9.97096 4.11363 10.9112 4.54758L18.2782 7.94796L35.0114 0.776607Z" fill="#666666"/>
<path fill-rule="evenodd" clip-rule="evenodd" d="M35.0114 38.2766C35.4995 38.0674 36.0535 38.075 36.5357 38.2976L44.6612 42.0476C45.6014 42.4815 46.0118 43.5955 45.5779 44.5357C45.1439 45.476 44.0299 45.8864 43.0897 45.4524L35.7218 42.052L18.9886 49.2234C18.5004 49.4326 17.9465 49.425 17.4643 49.2024L9.33972 45.4524C8.3995 45.0185 7.98908 43.9045 8.42303 42.9643C8.85698 42.024 9.97096 41.6136 10.9112 42.0476L18.2782 45.448L35.0114 38.2766Z" fill="#666666"/>
</svg>
