<svg width="54" height="49" viewBox="0 0 54 49" fill="none" xmlns="http://www.w3.org/2000/svg">
<path d="M0.125 2.5C0.125 1.46447 0.964466 0.625 2 0.625H42C43.0355 0.625 43.875 1.46447 43.875 2.5V20.625H52C53.0355 20.625 53.875 21.4645 53.875 22.5V42.5C53.875 43.5355 53.0355 44.375 52 44.375H46.5266L43.3258 47.5758C42.5936 48.3081 41.4064 48.3081 40.6742 47.5758L37.4734 44.375H24.5C23.4645 44.375 22.625 43.5355 22.625 42.5V34.375H19.0266L14.5758 38.8258C13.8436 39.5581 12.6564 39.5581 11.9242 38.8258L7.47335 34.375H2C0.964466 34.375 0.125 33.5355 0.125 32.5V2.5ZM43.875 32.5C43.875 33.5355 43.0355 34.375 42 34.375H26.375V40.625H38.25C38.7473 40.625 39.2242 40.8225 39.5758 41.1742L42 43.5983L44.4242 41.1742C44.7758 40.8225 45.2527 40.625 45.75 40.625H50.125V24.375H43.875V32.5ZM20.75 15.625C19.7145 15.625 18.875 16.4645 18.875 17.5C18.875 18.5355 19.7145 19.375 20.75 19.375H22C23.0355 19.375 23.875 18.5355 23.875 17.5C23.875 16.4645 23.0355 15.625 22 15.625H20.75ZM27.625 17.5C27.625 18.5355 28.4645 19.375 29.5 19.375H30.75C31.7855 19.375 32.625 18.5355 32.625 17.5C32.625 16.4645 31.7855 15.625 30.75 15.625H29.5C28.4645 15.625 27.625 16.4645 27.625 17.5ZM12 15.625C10.9645 15.625 10.125 16.4645 10.125 17.5C10.125 18.5355 10.9645 19.375 12 19.375H13.25C14.2855 19.375 15.125 18.5355 15.125 17.5C15.125 16.4645 14.2855 15.625 13.25 15.625H12Z" fill="#666666"/>
</svg>
