<svg width="34" height="34" viewBox="0 0 34 34" fill="none" xmlns="http://www.w3.org/2000/svg">
<path d="M32.9756 30.7661L22.5413 20.3317C24.1604 18.2384 25.0363 15.679 25.0363 12.987C25.0363 9.76472 23.7788 6.74329 21.5046 4.46517C19.2305 2.18704 16.2011 0.933472 12.9828 0.933472C9.76447 0.933472 6.735 2.19106 4.4609 4.46517C2.18277 6.73927 0.929199 9.76472 0.929199 12.987C0.929199 16.2053 2.18679 19.2348 4.4609 21.5089C6.735 23.787 9.76045 25.0406 12.9828 25.0406C15.6747 25.0406 18.2301 24.1647 20.3234 22.5495L30.7578 32.9799C30.7884 33.0105 30.8247 33.0348 30.8647 33.0514C30.9047 33.0679 30.9475 33.0765 30.9908 33.0765C31.0341 33.0765 31.0769 33.0679 31.1169 33.0514C31.1569 33.0348 31.1932 33.0105 31.2238 32.9799L32.9756 31.2321C33.0062 31.2015 33.0305 31.1652 33.0471 31.1252C33.0637 31.0852 33.0722 31.0424 33.0722 30.9991C33.0722 30.9558 33.0637 30.913 33.0471 30.873C33.0305 30.833 33.0062 30.7967 32.9756 30.7661ZM19.3471 19.3513C17.6435 21.0509 15.3854 21.987 12.9828 21.987C10.5801 21.987 8.32206 21.0509 6.61848 19.3513C4.91893 17.6478 3.98277 15.3897 3.98277 12.987C3.98277 10.5844 4.91893 8.32231 6.61848 6.62276C8.32206 4.9232 10.5801 3.98704 12.9828 3.98704C15.3854 3.98704 17.6475 4.91919 19.3471 6.62276C21.0466 8.32633 21.9828 10.5844 21.9828 12.987C21.9828 15.3897 21.0466 17.6518 19.3471 19.3513Z" fill="black"/>
</svg>
