<svg width="34" height="38" viewBox="0 0 34 38" fill="none" xmlns="http://www.w3.org/2000/svg">
<path d="M28.2496 26.125C26.9137 26.125 25.6809 26.5938 24.7153 27.3766L15.0028 20.35C15.1654 19.4573 15.1654 18.5427 15.0028 17.65L24.7153 10.6234C25.6809 11.4063 26.9137 11.875 28.2496 11.875C31.3528 11.875 33.8746 9.35313 33.8746 6.25C33.8746 3.14688 31.3528 0.625 28.2496 0.625C25.1465 0.625 22.6246 3.14688 22.6246 6.25C22.6246 6.79375 22.6996 7.31406 22.8449 7.81094L13.6199 14.4906C12.2512 12.6766 10.0762 11.5 7.62463 11.5C3.48088 11.5 0.124634 14.8563 0.124634 19C0.124634 23.1438 3.48088 26.5 7.62463 26.5C10.0762 26.5 12.2512 25.3234 13.6199 23.5094L22.8449 30.1891C22.6996 30.6859 22.6246 31.2109 22.6246 31.75C22.6246 34.8531 25.1465 37.375 28.2496 37.375C31.3528 37.375 33.8746 34.8531 33.8746 31.75C33.8746 28.6469 31.3528 26.125 28.2496 26.125ZM28.2496 3.8125C29.5949 3.8125 30.6871 4.90469 30.6871 6.25C30.6871 7.59531 29.5949 8.6875 28.2496 8.6875C26.9043 8.6875 25.8121 7.59531 25.8121 6.25C25.8121 4.90469 26.9043 3.8125 28.2496 3.8125ZM7.62463 23.125C5.3512 23.125 3.49963 21.2734 3.49963 19C3.49963 16.7266 5.3512 14.875 7.62463 14.875C9.89807 14.875 11.7496 16.7266 11.7496 19C11.7496 21.2734 9.89807 23.125 7.62463 23.125ZM28.2496 34.1875C26.9043 34.1875 25.8121 33.0953 25.8121 31.75C25.8121 30.4047 26.9043 29.3125 28.2496 29.3125C29.5949 29.3125 30.6871 30.4047 30.6871 31.75C30.6871 33.0953 29.5949 34.1875 28.2496 34.1875Z" fill="black" fill-opacity="0.85"/>
</svg>
