<svg width="50" height="54" viewBox="0 0 50 54" fill="none" xmlns="http://www.w3.org/2000/svg">
<path d="M16.875 12C16.875 7.51269 20.5127 3.875 25 3.875C29.4873 3.875 33.125 7.51269 33.125 12C33.125 16.4873 29.4873 20.125 25 20.125C20.5127 20.125 16.875 16.4873 16.875 12ZM25 0.125C18.4416 0.125 13.125 5.44162 13.125 12C13.125 18.5584 18.4416 23.875 25 23.875C31.5584 23.875 36.875 18.5584 36.875 12C36.875 5.44162 31.5584 0.125 25 0.125ZM25 27.625C11.5381 27.625 0.625 38.5381 0.625 52C0.625 53.0355 1.46447 53.875 2.5 53.875C3.53553 53.875 4.375 53.0355 4.375 52C4.375 40.6092 13.6092 31.375 25 31.375C36.3908 31.375 45.625 40.6092 45.625 52C45.625 53.0355 46.4645 53.875 47.5 53.875C48.5355 53.875 49.375 53.0355 49.375 52C49.375 38.5381 38.4619 27.625 25 27.625Z" fill="#666666"/>
</svg>
